<?xml version="1.0" encoding="utf-8"?>
<!-- Generator: Adobe Illustrator 24.1.3, SVG Export Plug-In . SVG Version: 6.00 Build 0)  -->
<svg version="1.1" id="Capa_1" xmlns="http://www.w3.org/2000/svg" xmlns:xlink="http://www.w3.org/1999/xlink" x="0px" y="0px"
	 viewBox="0 0 459.8 459.8" style="enable-background:new 0 0 459.8 459.8;" xml:space="preserve">
<path d="M78.3,345.9c0-17.5,0-34.9,0-52.4c0-7.2-0.1-14.3,0.1-21.5c0.1-2.6-0.8-3.7-3.2-4.6c-17.9-7-28.3-22-28.2-40.1
	c0.1-18,10.5-32.8,28-39.9c1.4-0.6,3.2-2.2,3.2-3.4c0.2-24.9,0.1-49.9,0.1-74.9c-2-0.8-3.9-1.5-5.7-2.3C53,98.7,42.4,77.4,47.7,56.9
	C53,36.6,73.2,22.6,93.2,25.3c22.5,3,38,20.3,38.1,42.2c0,18-10.7,33.7-27.7,39.9c-3.1,1.1-4.3,2.4-4.3,5.9
	c0.2,22.8,0.1,45.6,0,68.4c0,3.2,0.7,4.9,4.1,6.1c16.7,6.2,27.6,22.1,27.6,39.6c0,17.5-10.8,33.4-27.5,39.7c-3.2,1.2-4.2,2.6-4.2,6
	c0.2,22.8,0.1,45.6,0,68.4c0,3.3,0.9,4.8,4.2,6c20.8,7.6,32,29.2,26.6,50.7c-5.2,20.5-25.9,34.3-46.6,31.2
	c-22.4-3.3-38.3-21.9-36.9-44.2c1.1-17.6,10.2-30.2,26.5-37.3C74.6,347.3,76.3,346.7,78.3,345.9z M88.7,89
	c11.8,0.1,21.3-9.3,21.5-20.9c0.1-12-9.3-21.6-21.3-21.6c-12,0-21.6,9.6-21.6,21.4C67.5,79.5,77,89,88.7,89z M89,206.2
	c-12-0.1-21.7,9.5-21.6,21.4c0.1,11.6,9.6,21.1,21.3,21.2c11.8,0.1,21.4-9.2,21.5-20.9C110.4,215.9,101,206.3,89,206.2z
	 M110.2,387.3c0-11.8-9.3-21.2-21-21.4c-12-0.2-21.7,9.3-21.8,21.2c-0.1,11.8,9.7,21.5,21.6,21.4
	C100.8,408.5,110.2,399.1,110.2,387.3z"/>
<path d="M296.2,56.9c-39.6,0-79.2,0-118.8,0c-1.3,0-2.7,0-4-0.1c-5.5-0.4-9.7-4.6-9.9-10c-0.2-5.3,3.7-10,9.1-10.9
	c1.5-0.2,3-0.1,4.5-0.1c79.9,0,159.7,0,239.6,0.1c3,0,6.4,0.8,8.8,2.4c3.8,2.5,5,6.6,3.6,11c-1.4,4.3-4.4,7-9.1,7.4
	c-1.7,0.1-3.3,0.1-5,0.1C375.3,56.9,335.8,56.9,296.2,56.9z"/>
<path d="M296.8,216.6c-40.4,0-80.9,0-121.3,0c-8.8,0-13.9-6.3-11.5-13.8c1.5-4.7,5.4-7.2,11.3-7.2c20.3,0,40.6,0,60.9,0
	c60.1,0,120.1,0,180.2,0c2.3,0,4.7,0.2,6.8,1c4.3,1.7,6.8,6.4,6.2,10.9c-0.7,4.8-4.5,8.5-9.3,9c-1.8,0.2-3.7,0.1-5.5,0.1
	C375.4,216.6,336.1,216.6,296.8,216.6z"/>
<path d="M296.3,376.4c-39.6,0-79.2,0-118.8,0c-1.3,0-2.7,0-4-0.1c-5.8-0.4-10-4.8-10.1-10.3c0-5.5,4.2-10.1,9.9-10.6
	c1.8-0.2,3.7-0.1,5.5-0.1c79,0,158,0,237.1,0c2.4,0,5,0.2,7.3,1.1c4.4,1.6,6.8,6.4,6.2,10.9c-0.7,4.8-4.5,8.5-9.3,8.9
	c-1.8,0.2-3.7,0.1-5.5,0.1C375.2,376.4,335.7,376.4,296.3,376.4z"/>
<path d="M242.9,99.6c-22.6,0-45.2,0-67.8,0c-7.4,0-12.4-5.4-11.5-11.9c0.8-5.1,4.5-8.7,9.7-9c3.1-0.2,6.3-0.1,9.5-0.1
	c42.7,0,85.4,0,128.1,0c7.1,0,11.4,3.4,11.9,9.3c0.6,6.9-4,11.7-11.7,11.7C288.4,99.6,265.6,99.6,242.9,99.6z"/>
<path d="M243.3,238.3c22.8,0,45.5,0,68.3,0c7.7,0,12.4,5.4,11.1,12.5c-0.9,5.4-5.4,8.5-12.3,8.5c-33.6,0-67.1,0-100.7,0
	c-11.1,0-22.3,0-33.4,0c-8,0-13-4.1-12.9-10.6c0.1-6.5,4.9-10.4,13-10.4C198.8,238.3,221,238.3,243.3,238.3z"/>
<path d="M244,398.1c22.8,0,45.5-0.1,68.3,0c6.1,0,10.3,4,10.6,9.6c0.3,5.7-3.5,10.4-9.1,11.2c-0.8,0.1-1.7,0.1-2.5,0.1
	c-45.4,0-90.7,0-136.1,0c-4.5,0-8.1-1.5-10.4-5.6c-2-3.7-1.8-7.4,0.5-10.9c2.4-3.7,6.1-4.7,10.4-4.7
	C198.4,398.1,221.2,398.1,244,398.1C244,398.1,244,398.1,244,398.1z"/>
</svg>
